<svg width="432" height="400" xmlns="http://www.w3.org/2000/svg">
 <!-- Created with Method Draw - http://github.com/duopixel/Method-Draw/ -->
 <g>
  <title>Layer 1</title>
  <path stroke-opacity="0" id="svg_1" d="m41.75177,97.45766c-1.82975,0 -2.77126,-1.74884 -2.77126,-3.84602c0,-1.7482 0.4702,-3.4456 1.83086,-3.4456c0.9404,0 2.35644,1.6974 2.82664,3.4456c0.9404,2.5457 0,3.84602 -1.88624,3.84602zm312.83838,99.78197c4.18738,0 5.12759,0.44844 2.77121,3.44518c-1.3595,2.09711 -4.18729,3.84546 -5.54684,3.84546c-1.41602,0 -2.82669,-1.74835 -2.82669,-3.84546c0,-2.1485 1.88651,-3.44518 5.60233,-3.44518zm-292.31793,-122.05601c-4.18719,-0.84845 -4.65741,-5.14526 0,-6.44247c2.35653,-0.39946 3.71602,0.84843 3.71602,3.44578c0,2.14824 -1.3595,3.39662 -3.71602,2.99669zm-52.19001,135.73827c5.60223,-1.24869 5.60223,-2.14604 3.71602,-5.09415c-1.41061,-2.14609 -1.88083,-4.74294 -0.94041,-5.59169c0.47019,-1.29953 2.82661,0 4.18622,2.54585c1.88728,3.44577 3.29788,3.89709 7.01387,1.74835c2.30648,-1.29715 4.18729,-2.14816 4.18729,-0.8486c0,0.8486 1.41601,0 3.24582,-1.74809c2.82768,-2.54604 3.29786,-8.14001 0.47128,-11.13698c-2.30108,-2.54587 -13.97679,-1.69717 -17.22367,1.29713c-1.8808,2.14864 -3.29685,1.69983 -5.12659,-2.14555c-2.82772,-6.39394 -2.82772,-7.29161 3.71597,-7.69112c5.60331,0 5.60331,0 0.9404,-2.59705c-2.35101,-1.24857 -4.65637,-3.8455 -4.65637,-5.543c0,-4.29648 6.49156,-6.8423 9.31928,-3.84508c0.94041,1.24823 2.77017,2.54552 4.65639,2.54552c3.71709,0 21.4609,-14.53148 21.4609,-17.52835c0,-1.29953 1.83521,-2.14784 3.71706,-1.29953c2.30542,0.45099 6.49267,-0.84831 10.7354,-2.99712c6.01704,-3.44539 6.01704,-3.84544 2.77116,-9.43706c-2.30099,-3.84547 -5.12759,-5.14529 -11.67132,-5.14529c-7.43309,0 -9.31932,0.84877 -11.62038,5.99396c-0.94583,3.44562 -3.77246,5.99146 -5.6022,5.99146c-3.2469,0 -4.18726,-3.84308 -0.94152,-5.99146c1.4117,-0.84866 2.35209,-3.84538 2.35209,-6.84232c0,-4.69443 -0.94039,-5.54292 -7.01389,-4.2943c-6.0735,0.84848 -6.0735,0.44855 -4.65748,-5.99422c0.94041,-3.8454 2.30108,-7.29089 3.24689,-7.6908c0.94042,-0.44854 1.88081,-4.29427 1.88081,-8.13941c0,-7.69167 2.77559,-8.9889 7.90869,-3.44601c2.351,2.99699 3.76813,3.44601 4.65748,0.84847c0.9404,-1.69722 4.23724,-2.09714 9.37036,-1.24876c6.9629,1.69744 7.43308,1.24876 6.49267,-3.84538c-0.47018,-2.99672 -0.94581,-6.4425 -1.41606,-7.29095c0,-1.29742 -2.30103,-2.99698 -5.07661,-4.29436c-5.60332,-2.14783 -7.01392,-7.29105 -1.88624,-7.29105c1.41603,0 2.7756,-0.84866 2.7756,-2.54845c0,-1.29749 2.82662,-2.14594 6.54372,-1.74858c5.132,0.45109 7.9033,-1.24793 14.91721,-10.23626c5.13303,-6.44298 8.84907,-9.88844 9.31931,-8.14017c0.47014,2.14595 2.82767,3.39436 5.13306,3.39436c3.71601,0 4.18619,-1.24841 2.82664,-6.84007c-0.47563,-3.84571 -2.82664,-8.53938 -4.24269,-10.68814c-4.18725,-4.74503 -4.18725,-10.2879 0,-8.59098c3.29683,1.69975 13.55656,-2.99441 13.55656,-5.99138c0,-1.29954 1.36502,-2.14827 3.24693,-2.14827c1.88619,0 2.77559,2.59703 2.77559,5.99396c0,4.29423 0.94032,5.99165 3.29787,4.74294c1.82983,-0.89749 3.24579,-3.44571 3.24579,-5.14262c0,-5.14577 14.91714,-14.13413 18.63428,-11.58591c1.416,0.84896 2.82668,0 3.30234,-2.99673c1.3595,-5.99397 9.784,-10.68812 13.50102,-7.69114c1.88631,1.24841 3.71603,0.84897 4.19171,-0.44851c0.94037,-1.69975 4.65749,-2.99699 8.84477,-3.39719c4.18617,-0.44852 9.78938,-2.14827 12.14589,-3.89657c8.84366,-5.54288 17.69383,-5.14293 21.4099,0.85156c2.35645,4.29368 3.29681,4.29368 3.29681,1.29671c0,-3.84571 1.83624,-4.29421 13.03635,-2.99647c17.74492,1.69976 20.52048,1.69976 27.06409,-0.44902c4.18634,-1.24843 5.60229,-0.84872 5.60229,2.59677c0,2.14851 1.3607,3.8457 3.24704,3.8457c1.41043,0 2.77002,-1.24867 2.77002,-2.54822c0,-3.44522 7.4895,-5.14267 14.03336,-3.44522c5.07639,1.69976 5.54675,2.14775 4.18707,13.6846c-0.47003,6.89122 0,11.58537 0.88931,11.58537c0.94064,0 1.88638,-2.99697 1.88638,-7.29118c0,-7.24239 5.12775,-10.23679 7.01382,-4.2942c0.47025,2.14594 1.82999,1.29722 2.77136,-2.09689c2.35632,-8.99121 7.4884,-4.29704 6.07248,5.54287c-1.41052,8.13939 -1.41052,8.13939 2.77661,5.14242c2.35651,-1.29723 4.1861,-4.69364 4.1861,-6.84009c0,-2.14827 1.41614,-4.6965 3.298,-5.59401c3.71597,-1.69693 7.90863,4.74321 6.54364,9.43945c-0.47012,2.14619 -0.47012,3.8457 0.88934,3.8457c0.94608,0 1.88635,-1.24842 1.88635,-2.14827c0,-1.24867 2.30536,-1.69743 5.13196,-0.84846c6.06805,1.29723 6.95847,4.74271 1.83093,6.83982c-1.35953,0.89987 -2.7767,2.99699 -2.7767,4.74557c0,2.99725 0.94577,2.99725 6.07349,0c8.37341,-5.14267 12.09061,-4.74557 13.50665,0.84845c0.94031,2.997 2.77548,4.29653 4.65741,2.997c1.8862,-0.44878 6.07236,1.29953 9.31918,4.29419c2.82669,2.54824 7.01401,4.69416 8.90018,4.69416c2.77563,0 2.77563,2.14852 1.82974,8.14224c-0.94034,6.44297 -0.94034,7.29118 1.88748,4.69441c3.71597,-4.24567 5.12643,-3.84595 6.49158,2.14565c0.47006,2.99699 3.76807,5.14526 7.48407,6.44247c4.18726,0.85155 6.49252,2.99699 6.49252,5.54519c0,2.59705 1.41064,5.59173 2.82782,7.29143c3.71606,2.9967 2.77029,11.9851 -1.41718,14.98208c-1.41064,0.89757 -3.24557,0.44879 -3.71591,-0.84841c-0.94028,-1.29983 -4.18726,-1.29983 -10.25974,0c-9.79065,2.99441 -11.62039,3.84534 -9.3204,7.73969c1.41724,2.54582 17.69934,1.69743 26.59406,-1.29958c2.77557,-1.29746 3.7171,0 3.7171,5.99425c0,4.29369 -0.94153,7.69087 -2.35239,7.69087c-0.94559,0 -1.8349,1.29724 -1.8349,3.4455c0,5.145 2.30542,4.69385 8.37888,-1.29748c3.24142,-3.44545 5.12769,-4.29655 7.43304,-2.14802c2.35086,2.14802 2.82657,2.14802 2.82657,-1.29743c0,-2.09975 -0.94565,-3.8455 -2.35626,-3.8455c-0.88937,0 -1.83508,-1.6998 -1.83508,-3.39722c0,-2.14796 1.36478,-3.84539 3.2457,-3.84539c1.41592,0 3.29764,0.84838 3.29764,2.09714c0,1.30004 1.83554,2.997 4.19196,3.44568c3.24142,1.2998 4.1871,2.99699 3.71689,8.13997c-0.94583,9.83911 0.94049,12.83632 7.90326,11.13918c3.29684,-0.85126 5.12668,0 3.71594,1.69714c-0.4191,0.84848 0,2.99707 0.94064,3.89401c3.77341,2.54846 2.35745,8.54045 -1.82999,8.54045c-5.13202,0 -6.54355,2.14777 -3.76688,5.99341c1.88071,2.14832 3.29684,2.5459 5.12659,0.8488c4.24368,-4.29433 5.13293,-0.8488 5.60327,16.28204c0,8.5882 0.94049,15.43089 1.88062,15.43089c2.30661,0 1.41623,9.43968 -1.88062,13.28485c-1.83521,2.14616 -1.83521,4.24304 -0.47034,5.99139c3.29678,3.84563 0,14.98256 -4.19257,14.98256c-3.71597,0 -10.72974,8.13968 -10.72974,11.98532c0,4.69698 -6.01709,0 -7.43332,-5.14302c-1.41049,-4.69415 -1.41049,-4.69415 -2.35638,-1.29953c-0.88925,3.89693 4.19174,15.88203 8.42999,19.27875c2.77554,2.59731 -2.35651,6.89114 -6.07361,5.14281c-1.88617,-0.84839 -2.77573,-3.39407 -2.77573,-5.99129c0,-7.29074 -11.67111,-25.67052 -20.52029,-32.56137c-4.70865,-3.39726 -8.89471,-7.24272 -8.89471,-8.53999c0,-2.59695 -14.9227,-10.68825 -23.29611,-13.28508c-4.6629,-1.29956 -6.07343,-0.84845 -6.07343,2.59683c0,2.54613 -0.88925,3.39444 -2.77679,2.54613c-4.18616,-1.69748 -6.07236,2.14861 -2.35626,5.99422c5.13306,4.69394 4.2438,10.28758 -1.35968,8.1393c-3.76819,-1.29723 -4.23834,-0.84866 -2.82663,6.44276c0.47021,4.24539 1.41602,9.8392 1.41602,12.38507c0,2.59702 0.9404,4.29442 1.88092,4.29442c1.36487,0 1.83511,-0.84862 0.88937,-2.1459c-0.4704,-1.29988 0.47549,-2.54828 2.35626,-2.54828c1.41718,0 2.77679,1.69952 2.77679,3.39671c0,1.74863 -1.8353,3.4455 -5.13306,2.99724c-2.77029,0 -5.12787,-1.24861 -5.12787,-2.09741c0,-3.89677 -12.56506,-30.41547 -16.28207,-34.30998c-4.1861,-4.24562 -1.41046,-5.54283 -34.49609,14.58224c-5.12772,2.99709 -10.73099,9.43961 -13.55789,14.13403c-2.30521,4.69388 -6.02234,9.43942 -7.90317,10.28787c-1.8862,0.84875 -8.84888,7.69119 -14.92256,14.98236c-26.12373,32.11041 -21.88,35.95596 -20.05029,101.5303c7.90872,49.68961 7.90872,49.68961 7.90872,49.68961c-18.63864,0 -18.63864,0 -18.63864,0c-15.38734,0 -15.38734,0 -15.38734,0c1.41055,-45.84662 1.41055,-45.84662 1.41055,-45.84662c0.94054,-3.84299 1.41602,-11.58511 1.88625,-15.8797c0.47023,-2.54803 -13.08731,-13.68484 -12.6172,-16.23068c0,-2.14832 14.02783,3.84607 14.02783,1.69733c2.30647,-31.2619 0,-56.13248 -6.07237,-69.36884c-1.41167,-8.13986 -13.0874,-34.30746 -14.91721,-34.30746c-0.47141,0 -3.76823,-2.54814 -7.01399,-5.54515c-5.60332,-5.59132 -7.90427,-5.99164 -39.16013,-7.6911c-33.55582,-1.74605 -33.55582,-1.74605 -33.55582,-1.74605c-7.95428,5.99167 -7.95428,5.99167 -7.95428,5.99167c-4.65746,3.89668 -9.31933,6.44249 -10.67995,6.44249c-2.82662,0 -14.50237,8.99066 -19.57896,14.13335c-0.47028,0 -0.94049,-0.44826 -0.94049,-0.8485c-0.4713,0 -0.4713,0 -0.4713,-0.44885c-0.47014,-1.24832 -0.94473,-2.54808 -1.88618,-3.84534c2.82769,-2.14836 5.13311,-3.44789 6.07354,-2.99669c1.41062,0.84833 2.77562,0 2.77562,-2.14853c0,-2.14589 -2.77562,-2.9971 -10.20871,-2.14589c-8.90014,1.29738 -11.20556,1.74591 -12.6162,6.83998c-2.30642,2.59717 -2.77662,6.44281 -1.41164,9.43974c-0.47562,3.84541 -0.47562,6.44252 0,6.44252c0.47017,0 0.94043,-0.84862 2.3521,-1.74834c0,0.44876 0.47018,0.89972 0.94583,1.29958c-4.66291,1.29716 -7.01937,5.1429 -6.54369,8.98831c-2.35645,1.74835 -4.66294,2.59705 -7.48958,3.89426c0,0 0,-0.44852 -0.41917,-0.44852c1.83525,-3.84525 2.77565,-8.13991 3.24581,-14.5824c0.94583,-7.24263 0.4702,-11.98528 -0.94038,-11.98528c-0.94041,0 -1.88625,1.74826 -1.88625,4.29393c0.47019,2.1485 -0.41917,4.29445 -2.30101,4.69441c-1.41602,0.4485 -2.35649,-0.39996 -2.35649,-2.54591c0,-5.14514 -1.82971,-5.14514 -6.02135,-0.45107c-1.88187,1.74821 -5.59788,3.84569 -8.84476,4.74583c-4.24267,1.24808 -5.60223,0.39938 -7.48954,-4.29477c-1.41058,-3.84537 -2.35098,-8.14217 -1.41058,-9.83934c0.47016,-2.14833 0.47016,-3.89436 -1.35957,-3.89436c-5.13312,0 -1.41603,-6.84256 4.65746,-8.14211zm40.09952,-98.48244c-2.8267,-0.4485 -5.13312,-1.69719 -6.07351,-3.44547c-0.47021,-2.54822 -0.94041,-2.54822 -0.94041,0c0,1.74828 -1.88623,2.99696 -3.71709,3.44547c-3.29682,0 -3.29682,0.44878 0.47131,2.14878c2.29993,0.84823 4.65639,2.14545 5.12659,2.14545c0.41917,0 2.77673,-1.29722 5.13312,-2.14545c4.18619,-2.14878 4.18619,-2.14878 0,-2.14878zm369.68583,68.96887c0.88934,0.84872 1.82999,-0.45111 1.82999,-2.59705c0,-1.69962 -0.94064,-3.39693 -1.82999,-3.39693c-1.41589,0 -2.35632,0.84875 -2.35632,2.09705c0,1.29988 0.94043,3.04819 2.35632,3.89693zm-3.29678,3.84567c-0.47009,-1.2998 -2.77673,-2.99695 -4.66287,-2.99695c-1.35944,0 -2.29999,1.69714 -1.35944,2.99695c0.41895,1.29724 2.30527,2.14606 4.18707,2.14606c1.83524,0 2.30542,-0.84882 1.83524,-2.14606zm-4.18732,19.27626c1.41058,0 3.29681,-0.44856 3.29681,-0.8486c0,-0.89975 -1.88623,-1.74809 -3.29681,-2.59685c-1.83499,-0.84875 -3.24576,-0.40001 -3.24576,0.84875c0,1.29955 1.41077,2.59669 3.24576,2.59669zm3.71722,-40.70111c1.88071,-0.84909 2.82663,-2.14857 2.35098,-3.39713c-1.41071,-3.04559 -9.31396,-3.04559 -9.31396,0c0,3.39713 2.7702,4.69443 6.96298,3.39713zm-25.6026,-32.11316c-2.35638,1.2998 -3.76715,3.84575 -3.29684,5.14529c2.35651,3.39455 5.13199,2.54585 7.48428,-2.99704c2.30527,-5.1452 1.36478,-5.99373 -4.18744,-2.14825zm-8.90005,65.97208c12.14691,11.53636 12.61719,11.98514 12.61719,8.13968c0,-2.14609 -0.94052,-3.89418 -2.35654,-3.89418c-1.3606,0 -3.71698,-2.14862 -5.12775,-4.69394c-1.36081,-2.54878 -4.18713,-5.1459 -6.49255,-5.1459c-4.23846,0 -4.23846,0.45125 1.35965,5.59435zm-9.78418,-20.17667c2.82114,0 4.18607,-0.84853 2.35114,-1.24829c-1.41061,-0.84875 -3.71613,-0.84875 -5.12769,0c-1.4162,0.39977 0,1.24829 2.77655,1.24829zm-13.50659,-58.2295c1.41049,1.29748 5.59814,2.99462 9.31384,3.84568c6.54388,1.29724 7.01389,1.29724 3.29776,-2.14825c-4.23807,-4.24564 -15.85858,-5.54286 -12.6116,-1.69743zm-28.4292,-71.06546c-1.41064,1.2482 -1.88089,3.84546 -1.41064,5.54238c0.94049,3.44574 3.71597,0.44902 3.71597,-4.69416c0,-2.597 -0.47015,-2.99699 -2.30533,-0.84822zm13.97678,92.49054c3.71698,2.14563 5.133,2.14563 7.0195,-0.8511c3.71582,-4.69443 1.35925,-6.84009 -5.60345,-3.84517c-5.60336,2.09914 -5.60336,2.09914 -1.41605,4.69627zm-9.31387,-21.42509c7.0141,-4.69366 7.0141,-4.69366 1.41061,-4.69366c-3.76819,0 -6.54367,1.69666 -7.95441,4.69366c-0.88925,2.99462 -1.83505,4.6944 -1.36487,4.6944c0,0 3.71597,-2.54848 7.90866,-4.6944zm-10.26062,69.41738c3.24136,4.69473 8.8446,4.69473 7.01367,-0.44856c-0.47018,-1.69948 -0.94574,-3.84552 -0.94574,-4.29652c0,-0.39996 -1.88086,-0.39996 -4.18616,0.451c-3.7681,0.8488 -3.7681,2.14604 -1.88177,4.29408zm-14.45148,-17.57921c3.71597,4.69443 5.60223,5.14304 9.78946,1.69737c2.7757,-2.14589 2.7757,-2.14589 0,-2.54552c-1.41046,0 -5.12747,-0.4514 -8.37326,-1.30008c-4.66315,-1.69714 -4.66315,-1.69714 -1.4162,2.14822zm-0.47125,-46.69525c2.3576,0 5.13324,-6.8424 3.71704,-8.98836c-1.82959,-2.14832 -5.59787,1.29722 -5.59787,5.14291c0,2.14848 0.94052,3.84544 1.88083,3.84544zm-22.82047,29.11594c-2.82672,1.74834 -2.35629,2.14853 1.36066,2.14853c2.35638,0 5.12662,-0.85132 6.07242,-2.14853c1.41068,-3.39668 -3.24573,-3.39668 -7.43307,0zm0.47015,37.70465c0.41928,0.45132 1.83081,-0.44882 3.24689,-2.54613c1.41061,-1.74809 5.5979,-3.89639 8.84372,-4.74509c4.18716,-1.29764 6.07352,-3.39461 6.07352,-6.44279c0,-7.23947 -6.54379,-5.09413 -13.50662,4.29684c-2.82669,4.743 -5.12766,8.58861 -4.6575,9.43716zm-5.13208,-19.72525c4.18625,-4.694 4.18625,-5.54535 0.88943,-6.84256c-3.71707,-1.69754 -6.48715,2.14856 -6.48715,8.98845c-0.47556,5.14523 -0.47556,5.14523 5.59772,-2.14589zm-7.48404,-50.54083c0.47028,3.4455 1.41077,2.99698 4.18634,-3.3969c3.2977,-6.84016 3.2977,-7.73994 0.47006,-7.73994c-1.8298,0 -3.716,1.29742 -4.18613,3.44567c-0.94055,1.6972 -0.94055,5.59428 -0.47028,7.69118zm-2.30551,-35.10764c0,1.74599 0.88953,5.99175 1.83524,8.9884c1.41068,5.99391 1.41068,5.99391 2.82663,0.84874c1.82999,-5.14272 0,-12.83384 -2.82663,-12.83384c-1.36481,0 -1.83524,1.29704 -1.83524,2.9967zm-32.66191,14.13137c-2.30553,2.99696 -2.30553,5.99395 -0.47578,14.98229c0.94594,6.44248 3.30241,12.88517 4.66301,14.13389c2.35658,2.14821 2.8266,0 3.29686,-13.28278c0,-16.23107 -2.35641,-21.37606 -7.48409,-15.8334zm4.18723,45.39804c0.47025,0.84869 1.41061,-0.84866 0.94044,-3.39671c0,-2.59724 -0.4702,-2.99719 -1.41179,-1.29739c-0.41911,1.69707 -0.41911,3.84544 0.47134,4.69411zm16.80345,-40.25284c-0.47028,0.84875 -0.47028,6.8427 0.94043,13.28287c1.41608,11.13918 1.83511,11.58769 2.30536,3.44777c0.47012,-13.28516 -0.47025,-19.72759 -3.24579,-16.73064zm-15.86301,120.8073c2.82657,-5.14552 7.48405,-13.73412 10.72995,-18.87927c3.71719,-5.54298 6.07349,-12.83392 7.01398,-20.12509c1.36487,-11.53683 1.36487,-11.53683 1.36487,-11.53683c-5.60226,6.39389 -5.60226,6.39389 -5.60226,6.39389c-2.77658,3.44576 -4.65747,7.29117 -4.65747,8.58861c0,3.3967 -8.84906,24.82155 -11.62572,28.66714c-1.41058,2.14574 -3.76701,6.89156 -4.18614,10.28786c-2.35651,9.83746 1.83513,8.14 6.9628,-3.3963zm-33.08664,44.09795c1.41599,8.53958 1.41599,8.53958 6.07338,-9.83936c2.77675,-9.88846 6.963,-25.71901 9.79073,-35.55861c3.71596,-12.4341 5.13208,-22.72197 5.13208,-37.25548c0,-18.87697 -0.47572,-19.27704 -4.19173,-17.12813c-8.4256,5.54257 -13.08743,20.97348 -14.96935,50.93781c-0.8894,15.43369 -1.83511,30.86452 -2.77554,34.26143c-0.47021,3.44553 0,9.88818 0.94043,14.58234zm0.94571,-109.62148c1.83089,4.24557 3.71713,7.69099 3.71713,7.69099c0.47012,0 2.77023,-2.59685 4.65756,-5.99365c2.3564,-2.99442 6.07239,-6.44008 7.48405,-7.68881c5.55103,-3.89644 6.96288,-15.88188 2.30537,-24.02177c-3.71704,-7.2912 -13.97687,-15.43343 -15.86301,-12.83636c-0.94043,0.8487 -2.30112,8.99119 -3.24683,18.42829c-1.88087,14.13336 -1.88087,18.42984 0.94571,24.42131zm-2.82658,-98.08455c0.94044,0.85132 1.88087,0.39999 1.88087,-0.89724c0,-1.69951 -0.94043,-3.39722 -1.88087,-4.24567c-1.41599,-0.89983 -2.30534,-0.44874 -2.30534,1.24869c0,1.29748 0.88936,2.99699 2.30534,3.89423zm-151.02872,115.16393c6.49268,0.451 6.49268,0.451 6.49268,0.451c6.54369,0 13.08739,-5.54514 13.08739,-10.2879c0,-2.9969 -0.47022,-2.9969 -19.58008,9.8369zm2.77559,-11.98523c0,1.29999 0.94144,2.59685 2.35748,2.59685c2.29999,0 8.84376,-7.69099 7.43316,-8.98807c-1.41607,-1.74852 -9.79063,3.84511 -9.79063,6.39122zm5.13311,-29.51546c7.01389,8.54172 10.25969,9.39038 13.97683,3.84517c3.76699,-5.14259 0.47018,-8.58844 -10.73537,-9.83707c-9.31492,-1.29977 -9.31492,-1.29977 -3.24146,5.9919zm-5.13311,-24.01976c0,0.89728 3.29797,2.99439 7.01392,4.74273c17.22363,8.14016 20.52046,8.14016 20.05028,0.4002c0,-4.69443 -7.01389,-14.98258 -9.78951,-14.98258c-3.29787,0 -17.27468,8.13985 -17.27468,9.83965zm25.18335,60.82649c5.12661,0 5.5979,-1.29729 1.4107,-3.39452c-1.88625,-0.45108 -3.71712,0 -4.18734,1.24863c-0.94583,1.29689 0.47021,2.14589 2.77664,2.14589zm3.71606,-100.63052c-3.24582,-2.14857 -7.43854,-2.99674 -9.31931,-2.14857c-3.24584,1.6998 -2.77562,2.14857 1.88077,3.44549c2.30647,0.85132 7.01936,1.69977 9.32037,2.0997c2.77563,0 2.77563,-0.85101 -1.88184,-3.39662zm-0.41917,15.43074c2.77121,0 3.24578,-0.44864 1.35954,-1.74599c-1.35954,-0.39961 -3.24574,-0.39961 -4.18619,0.44907c-0.47025,0.84827 0.94045,1.69745 2.82664,1.29691zm2.77121,9.83999c-6.54365,0 -6.54365,0.3994 -2.77121,3.84516c4.65749,3.84544 6.01707,4.2939 7.90327,1.6972c3.24689,-3.39464 0.94044,-5.54236 -5.13206,-5.54236zm9.31928,-48.39299c-1.88618,-2.14825 -2.35638,1.69744 -1.4116,6.39159c0.47126,2.997 2.35203,5.59378 3.29783,5.59378c1.82982,0 0.47027,-9.43947 -1.88623,-11.98537zm14.91723,56.53205c-0.94042,0.40028 1.41609,2.99701 4.19169,5.14555c2.82771,2.14597 5.12768,2.99443 5.12768,1.69719c0,-2.99644 -7.90327,-8.59071 -9.31937,-6.84274zm-11.67133,2.99701c-4.18623,2.99722 -1.8298,10.68817 4.23833,11.98565c3.24575,0.84845 8.3789,4.29446 11.62469,7.69086c2.82771,3.44576 5.12768,4.74556 5.12768,3.44576c0,-4.29419 -18.63431,-24.87051 -20.9907,-23.12226zm19.10988,35.55918c-2.77669,-6.89404 -6.02245,-10.28867 -12.09595,-12.43692c-4.65753,-1.69717 -9.31939,-2.59676 -10.72995,-2.14569c-1.41605,0.44852 4.18618,5.99144 12.14586,12.43408c14.91725,11.13687 14.91725,11.13687 10.68005,2.14853zm24.75773,-65.97231c-0.94037,0 -1.88631,1.69743 -1.88631,3.39455c0,2.14828 0.94594,3.44583 1.88631,3.44583c1.3596,0 2.3054,-1.29755 2.3054,-3.44583c0,-1.69711 -0.9458,-3.39455 -2.3054,-3.39455zm-4.23834,35.10755c0,2.99675 7.95537,0.84874 11.20123,-2.99699c4.65742,-6.44241 4.18729,-8.13985 -1.88632,-8.13985c-4.18724,0 -9.31491,5.99422 -9.31491,11.13685zm13.55757,-92.49096c-1.41597,5.54288 -2.35634,10.23702 -1.88628,10.68812c1.41624,1.69743 5.13318,-11.13663 5.13318,-16.28187c0,-2.14595 -1.41595,0.45134 -3.2469,5.59375zm24.23764,86.49697c-2.35753,0 -4.1873,0.85136 -4.1873,2.54832c0,1.29742 1.35947,2.14848 2.77016,2.14848c1.88728,0 3.71701,-0.85105 4.19269,-2.14848c0.94043,-1.69696 -0.47568,-2.54832 -2.77554,-2.54832zm-5.60336,80.50539c2.77553,7.74236 6.96278,14.98236 9.31934,16.73071c2.35641,1.29749 7.0139,7.29143 9.78957,13.28514c2.77661,5.99159 5.60318,10.68578 6.07341,10.68578c2.29999,0 -2.35638,-39.40176 -5.60332,-51.38951c-2.82654,-10.28551 -3.71596,-19.72523 -3.24576,-34.70761c0.41922,-11.13661 0,-20.97623 -0.94037,-21.82468c-0.47017,-0.84873 -3.71712,-0.84873 -6.54376,0c-5.13304,1.69714 -5.60327,2.99698 -5.60327,12.43642c0,7.24004 -0.94038,11.13712 -3.24583,12.83388c-6.54369,3.84564 -6.07346,25.67049 0,41.94987zm-13.50655,-57.38077c-0.94049,-6.44247 -1.88083,-7.2912 -7.01401,-7.2912c-6.07335,0 -6.07335,0.44878 -5.60323,9.43713c0,5.54514 0.94585,11.98772 1.41605,14.98235c0.47125,2.99706 2.30658,5.9937 4.18718,6.4425c3.71722,2.1485 7.9034,-12.83356 7.01401,-23.57079zm-7.01401,43.24727c-4.18718,-5.14296 -7.01379,-10.68599 -7.43295,-11.98547c0,-1.69708 -2.35646,-5.99129 -5.12773,-9.83694c-2.82655,-3.84561 -6.07346,-8.59079 -7.48952,-10.28824c-4.65642,-5.99365 -3.71596,-0.8484 1.41606,12.43417c3.2469,8.99049 8.84473,17.13051 15.38844,23.97284c12.09486,11.58553 13.50539,9.43765 3.2457,-4.29636zm-7.43295,21.0248c5.07657,0 4.65742,-0.44849 -2.35646,-7.29079c-4.65742,-4.29465 -7.9032,-8.98862 -7.9032,-11.13695c0,-1.69702 -6.07355,-7.74002 -13.08744,-13.28305c-6.96299,-5.59363 -13.50658,-11.13643 -14.44701,-12.83598c-0.94579,-2.14606 -1.41605,-2.14606 -1.41605,0.40004c0,2.59714 -2.30105,2.99664 -9.78952,1.6971c-5.12767,-0.84877 -9.31494,-0.84877 -9.31494,-0.39758c0,0.8486 1.88184,5.99158 3.76812,11.13643c3.24578,8.5401 4.65639,10.28856 14.91723,13.68282c6.49258,2.14841 16.75237,7.29132 23.29607,11.13667c6.07355,3.89719 13.50664,6.8913 16.33321,6.8913zm-72.76595,14.53358c1.8862,0 4.66182,-0.84863 6.54259,-2.14815c3.24693,-2.99458 0.47564,-2.99458 -5.59785,0c-2.77557,1.29951 -3.24583,1.69957 -0.94473,2.14815zm-5.12766,-10.68813c4.65636,-1.74573 19.57898,-3.4455 33.1366,-3.4455c25.59714,-0.39996 30.72917,-1.69679 20.46947,-4.29422c-3.24688,-0.84842 -10.67996,-2.99704 -16.75235,-5.14297c-10.73103,-3.84537 -32.66754,-2.5482 -34.96748,1.74644c-0.47563,0.85066 -2.82771,1.29922 -5.13322,0.85066c-4.65747,-1.29953 -9.31924,2.14613 -10.7298,8.98891c-1.88629,5.54228 1.41056,5.99348 13.97678,1.29668zm-37.27292,9.83949c0.94039,3.44589 5.60223,3.84564 9.31932,0.84863c2.29997,-1.69722 2.29997,-2.54543 0,-5.14273c-1.88623,-2.5484 -3.24579,-2.5484 -6.07351,-0.40004c-1.88625,1.24883 -3.24582,3.39462 -3.24582,4.69414zm-14.91717,29.96475c1.82979,0 2.77017,1.29753 1.82979,3.84573c-0.41918,1.7484 -1.82979,3.44551 -2.7756,3.44551c-1.41168,0 -2.30106,-1.69711 -2.30106,-3.44551c0,-2.09724 1.35961,-3.84573 3.24688,-3.84573z" stroke-width="1.5" stroke="#0f0f00" fill="#0000ff"/>
 </g>
</svg>